<?xml version="1.0" encoding="UTF-8"?>
<svg xmlns="http://www.w3.org/2000/svg" viewBox="0 0 48 48" width="48" height="48" aria-hidden="true" focusable="false">
  <path fill="#FFC107" d="M43.611,20.083H42V20H24v8h11.303c-1.649,4.657-6.08,8-11.303,8c-6.627,0-12-5.373-12-12s5.373-12,12-12c3.059,0,5.842,1.152,7.961,3.039l5.657-5.657C32.846,5.345,28.627,4,24,4C12.954,4,4,12.954,4,24s8.954,20,20,20c11.046,0,20-8.954,20-20C44,22.659,43.862,21.35,43.611,20.083z"/>
  <path fill="#FF3D00" d="M6.306,14.691l6.571,4.814C14.655,15.108,18.961,12,24,12c3.059,0,5.842,1.152,7.961,3.039l5.657-5.657C32.846,5.345,28.627,4,24,4C16.318,4,9.711,8.089,6.306,14.691z"/>
  <path fill="#4CAF50" d="M24,44c5.373,0,10.24-2.059,13.971-5.411l-6.457-5.454C29.198,34.91,26.791,36,24,36c-5.197,0-9.607-3.317-11.22-7.946l-6.58,5.066C9.584,39.915,16.227,44,24,44z"/>
  <path fill="#1976D2" d="M43.611,20.083H42V20H24v8h11.303c-0.794,2.242-2.231,4.166-4.09,5.571l6.457,5.454C39.535,36.472,44,30.333,44,24C44,22.659,43.862,21.35,43.611,20.083z"/>
</svg>
